<svg width="151" height="57" viewBox="0 0 151 57" fill="none" xmlns="http://www.w3.org/2000/svg">
<g clip-path="url(#clip0_193_10)">
<path fill-rule="evenodd" clip-rule="evenodd" d="M46.9374 0.697703C41.2832 1.45183 38.3786 2.15063 34.4186 3.70955C32.6492 4.4061 29.4495 5.97522 27.978 6.86802C26.7207 7.63069 26.714 7.64793 26.2621 11.2401C25.3065 18.8386 26.5458 27.1003 29.7716 34.6346C30.5829 36.5299 32.0554 39.3584 32.7117 40.2827C32.8672 40.5016 32.9943 40.7184 32.9943 40.7643C32.9943 40.922 34.8297 43.4829 35.9636 44.9073C37.426 46.7443 40.9087 50.2161 42.7752 51.6974C45.6645 53.9905 49.4927 56.4515 50.1701 56.4515C50.5507 56.4515 52.8026 55.1653 54.5835 53.9308C61.0137 49.4736 66.0611 43.6904 69.4851 36.8566C69.9474 35.9338 70.3257 35.1413 70.3257 35.0956C70.3257 35.0497 69.7859 35.0122 69.1263 35.0122H67.9269V32.6884V30.3646H62.587C57.5731 30.3646 57.2518 30.3806 57.3216 30.6269C57.3626 30.7713 57.6773 31.935 58.0209 33.2131C58.3644 34.4913 58.7483 35.8913 58.8741 36.3241L59.1026 37.1112H62.3903C64.518 37.1112 65.678 37.165 65.678 37.2637C65.678 37.7132 63.9153 40.8269 62.9635 42.0589C61.5137 43.9352 58.6096 46.9091 56.8324 48.3374C54.4618 50.2427 50.8368 52.5535 50.2188 52.5535C49.744 52.5535 46.9713 50.8254 44.8384 49.2003C38.4233 44.3116 33.5816 37.3752 31.168 29.6149C30.6973 28.1016 30.0952 25.4272 29.8347 23.6929C29.5737 21.9542 29.4017 18.2526 29.4991 16.4682L29.5907 14.7907L30.4305 15.508C30.8924 15.9025 32.7366 17.4839 34.5288 19.0221L37.7873 21.8188H42.1826H46.578L46.9035 21.0484C47.0826 20.6245 47.197 20.226 47.1581 20.1628C47.1189 20.0995 46.7464 20.001 46.33 19.9437C45.9137 19.8865 45.5963 19.77 45.6246 19.685C45.653 19.6 46.5683 19.0775 47.6585 18.5239C51.6849 16.4797 52.5509 16.1952 54.4438 16.2946C55.9814 16.3752 56.8486 16.807 57.269 17.7013C57.4411 18.0676 57.582 18.5955 57.582 18.8743C57.582 19.3802 57.584 19.3815 58.4441 19.4799C59.6173 19.6142 60.3981 20.085 61.0251 21.0364L61.5447 21.8247L64.6982 21.7842L67.8519 21.7439L67.8921 18.1082L67.9323 14.4725H48.729C30.5104 14.4725 29.5299 14.459 29.6041 14.2101C29.6471 14.0658 29.8621 13.1719 30.0817 12.2236C30.3014 11.2754 30.5912 10.3878 30.7257 10.2512C31.4113 9.55558 35.4425 7.61809 38.3335 6.59501C46.5495 3.68721 56.0321 3.707 64.2537 6.64913C66.7275 7.53429 69.3447 8.74658 69.7584 9.19875C70.1528 9.62979 70.4768 10.5664 70.4737 11.2665C70.4726 11.5043 70.5874 12.3229 70.7288 13.0857L70.9858 14.4725H72.6048H74.2237L74.2207 13.9103C74.2189 13.6012 74.0801 12.3361 73.912 11.0992C73.744 9.86232 73.5434 8.37806 73.4663 7.80085C73.2363 6.07971 73.2339 6.07701 71.103 5.05647C64.5618 1.92409 58.2921 0.508948 51.1353 0.549428C49.3624 0.559473 47.4734 0.626189 46.9374 0.697703ZM117.327 15.2128C116.043 15.5269 115.038 16.4064 114.618 17.5832C114.279 18.5314 114.349 20.2721 114.76 21.1442C115.19 22.0568 115.604 22.4526 116.553 22.8583C117.37 23.2078 118.988 23.2791 119.787 23.0007C120.185 22.862 120.259 22.7655 120.221 22.4385C120.191 22.1718 120.103 22.064 119.951 22.1063C119.827 22.1407 119.248 22.1982 118.663 22.234C117.522 22.3037 116.735 22.0407 116.151 21.395C115.514 20.6908 115.273 19.0811 115.627 17.8986C116.068 16.4293 117.798 15.6332 119.494 16.1197C120.044 16.2773 120.244 16.1503 120.248 15.6415C120.253 15.174 118.523 14.9203 117.327 15.2128ZM81.7991 15.3652C81.7452 15.4526 81.2288 16.9236 80.6518 18.634C78.9834 23.5793 79.0627 23.1682 79.7765 23.1682C80.1479 23.1682 80.2192 23.0649 80.6305 21.9313L81.0792 20.6944L82.4302 20.6515L83.7813 20.6086L84.2123 21.8509C84.5702 22.8821 84.7027 23.1016 84.9918 23.1425C85.7994 23.2569 85.7994 23.152 84.9915 20.8134C84.5701 19.5935 83.9756 17.8533 83.6704 16.9463L83.1155 15.2971L82.5065 15.2517C82.1716 15.2266 81.8533 15.2778 81.7991 15.3652ZM87.1173 15.3184C86.924 15.3712 86.8958 15.9215 86.9168 19.2365L86.9411 23.0932L88.3982 23.1364C91.6813 23.2335 93.2576 21.9066 93.2576 19.0452C93.2576 17.1505 92.5071 15.9731 90.9726 15.4614C90.3078 15.2397 87.7522 15.1449 87.1173 15.3184ZM93.565 15.3346C93.5654 15.3964 94.1263 17.1674 94.8111 19.2701L96.0564 23.0932H96.6333H97.2101L97.7972 21.444C98.12 20.537 98.7485 18.7661 99.1936 17.5085L100.003 15.2221H99.4414H98.88L97.7671 18.5457C97.1551 20.3736 96.6395 21.8071 96.6213 21.7316C96.4353 20.9539 95.187 16.9227 94.8029 15.8593C94.5942 15.2815 94.5258 15.2221 94.0684 15.2221C93.791 15.2221 93.5645 15.2728 93.565 15.3346ZM101.904 15.8515C101.774 16.2063 101.301 17.576 100.853 18.8953C100.405 20.2146 99.9312 21.5893 99.7999 21.9502C99.4276 22.9728 99.472 23.1959 100.037 23.1401C100.488 23.0956 100.532 23.032 100.911 21.8938L101.311 20.6944H102.709H104.108L104.508 21.8938C104.904 23.0827 104.912 23.0937 105.457 23.1397C105.76 23.1653 106.008 23.1316 106.007 23.0647C106.007 22.998 105.496 21.459 104.871 19.6449C104.246 17.8308 103.656 16.1104 103.56 15.8218C103.401 15.3475 103.324 15.2928 102.762 15.2518C102.153 15.2073 102.136 15.2196 101.904 15.8515ZM107.207 19.1952V23.1682H107.657H108.107L108.109 19.9073L108.112 16.6464L108.531 17.3961C108.929 18.1087 110.203 20.191 111.488 22.2311C112.015 23.0674 112.131 23.1682 112.567 23.1682H113.054V19.1952V15.2221H112.608H112.161L112.12 18.3331L112.08 21.444L111.723 20.7694C111.526 20.3983 110.683 19 109.849 17.6619L108.332 15.229L107.769 15.2256L107.207 15.2221V19.1952ZM121.6 19.1952V23.1682H123.774H125.948V22.7184V22.2686H124.299H122.65V20.8443V19.42H124.149H125.648V18.9703V18.5205H124.149H122.65V17.3211V16.1217H124.224H125.798V15.6719V15.2221H123.699H121.6V19.1952ZM88.3542 16.0715C88.0194 16.1419 88.0168 16.1634 88.0147 18.8683C88.0137 20.3674 87.9732 21.7415 87.9248 21.9217C87.8497 22.2021 87.9126 22.2637 88.3614 22.3478C89.0552 22.4779 90.426 22.1829 91.0354 21.7722C91.8024 21.2553 92.1084 20.5889 92.1765 19.2868C92.2519 17.8457 91.8693 16.9745 90.9404 16.4719C90.3401 16.147 88.9883 15.9377 88.3542 16.0715ZM82.3291 16.4386C82.3239 16.5718 82.0839 17.3814 81.7955 18.2377C81.5074 19.0941 81.2713 19.8118 81.2708 19.8323C81.2705 19.8529 81.7762 19.8698 82.3946 19.8698C83.0131 19.8698 83.5189 19.8191 83.5189 19.7574C83.5185 19.5076 82.3377 16.2143 82.3291 16.4386ZM102.141 18.0439C101.869 18.9244 101.65 19.6956 101.653 19.7574C101.666 19.9628 103.759 19.8886 103.759 19.6827C103.759 19.4412 102.852 16.6785 102.728 16.5446C102.677 16.4886 102.412 17.1632 102.141 18.0439ZM53.4326 19.0746C53.253 19.1095 53.0318 19.2275 52.9413 19.3368C52.8143 19.4899 52.8548 19.5569 53.1177 19.6287C53.3054 19.6802 53.644 19.9916 53.8699 20.3208C54.4056 21.101 54.8879 21.116 55.6825 20.3775C55.9982 20.0839 56.2344 19.8251 56.2072 19.8022C55.906 19.5485 54.2176 18.9536 53.9089 18.9923C53.8264 19.0027 53.612 19.0397 53.4326 19.0746ZM38.4614 22.5599C38.5095 22.6377 39.4749 23.4959 40.6066 24.467C41.7384 25.438 43.2702 26.7716 44.0104 27.4307L45.3564 28.6289L45.5494 26.6857C45.7179 24.9887 45.8671 24.1826 46.2759 22.7559L46.3726 22.4185H42.3734C39.9054 22.4185 38.4074 22.4727 38.4614 22.5599ZM61.5939 23.6745C61.5509 24.3653 61.4501 25.0475 61.3701 25.1905C61.2402 25.4224 61.1897 25.4016 60.9015 24.997C59.9545 23.6668 57.408 23.5821 56.29 24.8434L56.0078 25.1617L56.9449 25.0668C57.8447 24.9757 58.0341 25.0421 57.7504 25.3496C57.3924 25.7377 56.9823 27.2907 56.9823 28.259C56.9823 29.92 56.409 29.7649 62.5456 29.7649H67.9269V26.0917V22.4185H64.7996H61.6723L61.5939 23.6745ZM80.9704 26.5635C80.0567 26.8613 79.6294 27.1496 79.341 27.6626C78.5903 28.9983 79.0828 29.9839 80.9668 30.9158C82.4039 31.6268 82.6195 31.8488 82.6195 32.6188C82.6195 33.668 81.5594 34.131 80.0455 33.7431C79.5401 33.6137 79.1083 33.5259 79.0861 33.5482C79.0639 33.5704 79.0003 33.7695 78.9447 33.9907C78.8494 34.3707 78.8871 34.4057 79.6345 34.6275C80.5687 34.9049 81.0582 34.92 81.9384 34.6985C83.2807 34.3604 83.9176 33.3728 83.6692 32.0142C83.5215 31.2072 82.9443 30.6185 81.8888 30.1989C81.4249 30.0145 80.86 29.7358 80.6333 29.5794C79.8707 29.0532 79.9119 28.1497 80.7213 27.6562C81.2867 27.3115 81.7714 27.2917 82.5888 27.5802C83.2416 27.8104 83.3692 27.7263 83.3692 27.0664C83.3692 26.6727 81.7056 26.3238 80.9704 26.5635ZM106.638 26.7964C106.217 27.217 106.492 27.9658 107.068 27.9658C107.716 27.9658 108.018 27.2986 107.571 26.852C107.291 26.5715 106.887 26.5473 106.638 26.7964ZM109.876 27.4679C109.692 27.5166 109.609 27.728 109.576 28.2376C109.535 28.8796 109.495 28.9443 109.119 28.9877C108.799 29.0245 108.706 29.1143 108.706 29.3901C108.706 29.6658 108.799 29.7556 109.119 29.7925L109.531 29.8398L109.606 31.9611C109.69 34.3343 109.807 34.6239 110.75 34.801C111.568 34.9544 112.005 34.7763 112.005 34.2898C112.005 33.9116 111.955 33.8728 111.47 33.8728C111.166 33.8728 110.876 33.779 110.798 33.6554C110.722 33.5359 110.659 32.6116 110.658 31.6015L110.656 29.7649H111.405C112.105 29.7649 112.155 29.7398 112.155 29.3901C112.155 29.0403 112.105 29.0152 111.405 29.0152H110.656V28.1907C110.656 27.3283 110.6 27.2772 109.876 27.4679ZM86.2593 28.9706C86.0759 29.0061 85.6585 29.3388 85.3317 29.7101C84.8522 30.2548 84.7179 30.5422 84.6359 31.1986C84.472 32.5103 84.6564 33.2854 85.2904 33.9502C86.096 34.7946 87.0098 35.0109 88.4593 34.7C89.0963 34.5634 89.2162 34.4842 89.2162 34.2003C89.2162 33.7217 89.1533 33.6971 88.3504 33.8616C87.9558 33.9424 87.3704 33.9593 87.0497 33.8991C86.3161 33.7614 85.618 33.0536 85.618 32.4476V32.0137H87.551C89.7014 32.0137 89.7144 32.0073 89.5636 31.0104C89.4366 30.1715 88.9345 29.3578 88.3819 29.0956C87.9254 28.879 87.0114 28.8251 86.2593 28.9706ZM92.3102 29.0754C90.6519 29.6938 89.9297 31.78 90.7882 33.4718C91.2621 34.4055 92.5663 34.9658 93.854 34.7887C94.7933 34.6595 94.975 34.5287 94.8588 34.0659C94.7695 33.7095 94.7312 33.6959 94.218 33.8377C93.1056 34.1449 92.0837 33.7036 91.7027 32.7514C91.3957 31.9841 91.4069 31.6317 91.7635 30.8461C92.1422 30.0117 92.8375 29.6911 93.9779 29.8251C94.7065 29.9107 94.7825 29.8905 94.9018 29.5793C94.9735 29.3928 94.9837 29.1881 94.9246 29.1245C94.7053 28.8886 92.9021 28.8547 92.3102 29.0754ZM104.119 29.3751L103.609 29.8848V29.45C103.609 29.05 103.565 29.0152 103.064 29.0152H102.519L102.614 29.7109C102.667 30.0934 102.709 31.3752 102.709 32.5595V34.7124H103.234H103.759V32.8149C103.759 31.0119 103.778 30.8926 104.141 30.4161C104.445 30.0184 104.631 29.9148 105.041 29.9148C105.532 29.9148 105.558 29.8883 105.558 29.3901C105.558 28.9033 105.524 28.8653 105.093 28.8653C104.765 28.8653 104.479 29.0146 104.119 29.3751ZM96.1134 31.2266C96.114 33.6403 96.2438 34.0985 97.0826 34.6481C97.5915 34.9817 98.7639 34.8734 99.3777 34.4364C99.9383 34.0371 100.011 34.0344 100.011 34.4125C100.011 34.6458 100.111 34.7124 100.461 34.7124H100.91V31.8638V29.0152H100.386H99.8609V30.792C99.8609 31.7692 99.7915 32.7677 99.7066 33.011C99.5413 33.4857 98.8803 33.9628 98.3882 33.9628C97.3987 33.9628 97.1321 33.3614 97.0428 30.9268L96.9726 29.0152H96.5426H96.1128L96.1134 31.2266ZM106.608 31.8638V34.7124H107.132H107.657V31.8638V29.0152H107.132H106.608V31.8638ZM112.495 29.2027C112.535 29.3058 113.015 30.5146 113.561 31.8893C114.107 33.2638 114.554 34.485 114.554 34.603C114.554 34.9826 113.703 36.0049 113.222 36.2045C112.709 36.4167 112.689 36.4683 112.896 37.0146C113 37.2878 113.118 37.3664 113.336 37.3092C113.81 37.1853 114.79 36.2718 115.195 35.5755C115.562 34.9461 116.59 32.4446 117.413 30.1772L117.835 29.0152H117.258H116.681L115.96 31.2049C115.44 32.785 115.208 33.3172 115.126 33.1164C115.064 32.9635 114.697 31.9781 114.312 30.9268L113.611 29.0152H113.017C112.603 29.0152 112.445 29.0721 112.495 29.2027ZM86.2254 30.0272C85.9797 30.2539 85.7353 30.6251 85.6821 30.8518L85.5855 31.2641H87.1171C88.4521 31.2641 88.6369 31.2337 88.5576 31.0269C88.5075 30.8965 88.4666 30.691 88.4666 30.57C88.4666 30.4491 88.288 30.1848 88.0699 29.9826C87.5222 29.4749 86.8051 29.4923 86.2254 30.0272ZM94.6135 38.4269V38.9932L94.0321 38.9377C93.5582 38.8926 93.4057 38.9464 93.2075 39.2295C92.6705 39.9964 93.0657 41.1592 93.8636 41.1592C94.1014 41.1592 94.3422 41.0845 94.3985 40.9932C94.4716 40.8752 94.5341 40.8808 94.6155 41.0124C94.9051 41.4811 95.0633 40.9206 95.0633 39.4262C95.0633 38.1347 95.024 37.8608 94.8384 37.8608C94.6782 37.8608 94.6135 38.0236 94.6135 38.4269ZM79.7372 38.2407C79.2051 38.5343 79.0213 38.8992 79.0213 39.6616C79.0213 40.1508 79.1161 40.3775 79.468 40.7293C79.8582 41.1196 80.0047 41.1701 80.6299 41.1301L81.3452 41.0842L81.3904 40.2971C81.4356 39.5128 81.4342 39.51 80.987 39.51C80.7402 39.51 80.4966 39.5775 80.4456 39.6599C80.3946 39.7424 80.4846 39.8098 80.6456 39.8098C81.0104 39.8098 81.169 40.1881 80.9645 40.5703C80.5939 41.2629 79.4111 40.5331 79.4111 39.6118C79.4111 38.8545 79.7978 38.4857 80.6494 38.4305C81.0321 38.4058 81.3452 38.3181 81.3452 38.2356C81.3452 37.9923 80.1805 37.9959 79.7372 38.2407ZM87.7952 38.1323C87.7522 38.1754 87.717 38.3088 87.717 38.4289C87.717 38.5896 87.7678 38.6051 87.9095 38.4875C88.0254 38.3913 88.1864 38.38 88.3146 38.4592C88.5603 38.6112 88.7666 38.5221 88.7662 38.2643C88.7657 38.0893 87.9492 37.9784 87.7952 38.1323ZM99.0662 38.2776C98.5668 38.8295 98.7875 39.3233 99.7485 39.8042C100.523 40.1917 100.045 40.9866 99.1698 40.7668C98.8684 40.6913 98.7889 40.7175 98.841 40.8757C98.9417 41.1821 99.8219 41.2193 100.255 40.9353C100.546 40.7446 100.618 40.5859 100.582 40.2132C100.545 39.8278 100.42 39.6755 99.9359 39.4253C99.123 39.0048 99.1095 38.5542 99.9077 38.4884C100.622 38.4295 100.574 38.1039 99.8417 38.0409C99.4807 38.01 99.2426 38.0826 99.0662 38.2776ZM86.2177 38.528C86.2177 38.6476 86.0996 38.8124 85.9554 38.8943C85.7083 39.0343 85.708 39.0544 85.9494 39.2389C86.1242 39.3728 86.2194 39.6968 86.2492 40.2596C86.2901 41.0352 86.3171 41.0871 86.705 41.1316C86.9317 41.1577 87.1173 41.1072 87.1173 41.0191C87.1173 40.9313 87.0233 40.8593 86.9084 40.8593C86.6387 40.8593 86.5176 40.5301 86.5176 39.7976C86.5176 39.3102 86.5686 39.2102 86.8174 39.2102C86.9824 39.2102 87.1173 39.1427 87.1173 39.0602C87.1173 38.9778 87.0098 38.9103 86.8783 38.9103C86.747 38.9103 86.6041 38.7754 86.5611 38.6105C86.4707 38.2652 86.2177 38.2045 86.2177 38.528ZM82.6332 38.934C81.3693 39.4036 81.7507 41.1592 83.1164 41.1592C83.4756 41.1592 83.669 41.0896 83.669 40.9602C83.669 40.8271 83.5285 40.782 83.2434 40.8238C82.8312 40.8842 82.3197 40.5659 82.3197 40.249C82.3197 40.1724 82.657 40.1097 83.0693 40.1097C83.7524 40.1097 83.8189 40.079 83.8189 39.7635C83.8189 39.094 83.2582 38.7018 82.6332 38.934ZM87.8159 38.9019C87.3597 39.0619 87.4633 39.2692 88.0036 39.2775C88.726 39.2883 88.7365 39.5766 88.0225 39.7905C87.5824 39.9223 87.3949 40.071 87.3269 40.3421C87.1843 40.9103 87.4833 41.144 88.3278 41.1248L89.0663 41.1081V40.2628C89.0663 39.1299 88.603 38.6257 87.8159 38.9019ZM90.163 38.9127C89.1188 39.329 89.4284 41.1592 90.5431 41.1592C91.163 41.1592 91.615 40.6608 91.615 39.9772C91.615 39.1451 90.8982 38.6196 90.163 38.9127ZM96.16 38.9113C95.4335 39.2042 95.2489 40.5293 95.8773 40.9412C96.2876 41.21 97.1819 41.1824 97.2752 40.8982C97.3191 40.7646 97.206 40.7382 96.8749 40.8043C96.3849 40.9024 95.9629 40.6764 95.9629 40.3163C95.9629 40.1683 96.1758 40.1097 96.7125 40.1097C97.3677 40.1097 97.4621 40.071 97.4621 39.8031C97.4621 39.5018 96.8408 38.7512 96.6068 38.7698C96.5413 38.7751 96.3402 38.8388 96.16 38.9113ZM101.574 38.9158C101.109 39.0878 100.882 39.4511 100.865 40.0494C100.845 40.7535 101.335 41.1946 102.064 41.1292C102.669 41.0749 102.661 40.8082 102.054 40.7943C101.782 40.788 101.541 40.6604 101.399 40.447C101.174 40.1103 101.175 40.1097 102.033 40.1097H102.892L102.789 39.6983C102.608 38.9767 102.171 38.6953 101.574 38.9158ZM109.943 38.8763C109.758 38.9066 109.606 39.0235 109.606 39.1362C109.606 39.2868 109.745 39.3185 110.131 39.256C110.549 39.1883 110.656 39.2202 110.656 39.4125C110.656 39.5523 110.482 39.6958 110.243 39.7527C110.016 39.8069 109.747 39.9176 109.644 39.9988C109.405 40.1863 109.401 40.7443 109.636 40.9793C109.862 41.2051 110.454 41.2137 110.59 40.9932C110.663 40.8752 110.726 40.8808 110.807 41.0124C111.016 41.3497 111.255 41.001 111.253 40.3632C111.249 39.2757 110.778 38.7407 109.943 38.8763ZM112.696 38.8685C112.648 38.9167 112.403 38.9502 112.151 38.943L111.692 38.9299L111.736 39.9952C111.764 40.6808 111.847 41.0823 111.967 41.1221C112.102 41.1667 112.155 40.9559 112.155 40.377C112.155 39.5431 112.33 39.2102 112.768 39.2102C113.096 39.2102 113.204 39.5107 113.204 40.4218C113.204 40.9773 113.26 41.1592 113.429 41.1592C113.717 41.1592 113.747 39.5334 113.467 39.1848C113.25 38.9158 112.824 38.741 112.696 38.8685ZM115.044 38.8781C114.616 38.9449 114.104 39.5928 114.104 40.0665C114.104 40.2713 114.297 40.6257 114.542 40.8709C114.783 41.1119 114.944 41.3091 114.899 41.3091C114.854 41.3091 114.901 41.4103 115.003 41.534C115.158 41.7199 115.143 41.7589 114.917 41.7589C114.713 41.7589 114.687 41.8022 114.813 41.9287C115.095 42.2103 115.497 41.9545 115.418 41.5436C115.367 41.277 115.426 41.162 115.641 41.1058C115.802 41.0638 115.893 40.9638 115.843 40.8835C115.793 40.8033 115.624 40.7712 115.467 40.8122C115.125 40.9016 114.554 40.3826 114.554 39.983C114.554 39.5958 115.027 39.2102 115.502 39.2102C115.723 39.2102 115.903 39.1505 115.903 39.0778C115.903 38.9094 115.477 38.8105 115.044 38.8781ZM116.531 38.8673C116.02 38.965 116.218 39.2679 116.799 39.2772C117.513 39.2886 117.518 39.5778 116.808 39.7905C116.368 39.9223 116.181 40.071 116.112 40.3421C115.968 40.917 116.28 41.1674 117.075 41.1156L117.76 41.0709L117.724 40.1781C117.696 39.4889 117.618 39.2253 117.379 39.0227C117.208 38.8784 117.026 38.7695 116.973 38.7808C116.921 38.792 116.722 38.831 116.531 38.8673ZM84.2746 39.1994C84.066 39.5887 84.1849 39.8343 84.7333 40.1473C85.3026 40.4724 85.224 40.7922 84.5824 40.7614C83.9624 40.7317 84.0456 41.0671 84.6738 41.1298C85.1498 41.1773 85.618 40.8557 85.618 40.4814C85.618 40.3679 85.3825 40.0953 85.0948 39.8758C84.5258 39.4418 84.5284 39.2102 85.1021 39.2102C85.3035 39.2102 85.4681 39.1427 85.4681 39.0602C85.4681 38.9778 85.2344 38.9103 84.9486 38.9103C84.5891 38.9103 84.3816 38.9994 84.2746 39.1994ZM103.394 39.2412C103.065 39.7112 103.096 40.4967 103.459 40.8593C103.794 41.1941 104.088 41.2343 104.518 41.004C104.913 40.7928 104.902 41.0661 104.499 41.4688C104.265 41.7024 104.081 41.7547 103.749 41.6818C103.246 41.5712 103.135 41.8332 103.62 41.9872C103.968 42.0979 104.635 41.9653 104.92 41.7284C105.045 41.625 105.108 41.131 105.108 40.265V38.9578L104.369 38.9317C103.756 38.91 103.589 38.9629 103.394 39.2412ZM105.708 39.7015C105.708 40.1751 105.802 40.6266 105.941 40.8259C106.195 41.1884 106.741 41.2655 107.027 40.9793C107.167 40.8394 107.207 40.8394 107.207 40.9793C107.207 41.0782 107.308 41.1592 107.432 41.1592C107.612 41.1592 107.657 40.9343 107.657 40.0347C107.657 39.1352 107.612 38.9103 107.432 38.9103C107.264 38.9103 107.207 39.0881 107.207 39.6106C107.207 40.4572 106.872 40.9314 106.439 40.6994C106.217 40.5805 106.158 40.3772 106.158 39.7296C106.158 39.1013 106.105 38.9103 105.933 38.9103C105.761 38.9103 105.708 39.0982 105.708 39.7015ZM108.257 40.0715C108.257 40.8946 108.305 41.168 108.444 41.1224C108.554 41.0863 108.65 40.7365 108.677 40.2817C108.711 39.7045 108.798 39.4554 109.014 39.3203C109.45 39.0485 109.369 38.917 108.781 38.9391L108.257 38.9589V40.0715ZM82.5053 39.3844C82.1966 39.6931 82.2927 39.8098 82.8554 39.8098C83.2847 39.8098 83.3811 39.7577 83.3411 39.5475C83.2806 39.2292 82.7617 39.128 82.5053 39.3844ZM90.1458 39.3901C89.7662 39.7697 90.0776 40.8593 90.5656 40.8593C90.8333 40.8593 91.1653 40.3722 91.1653 39.9791C91.1653 39.5194 90.924 39.2102 90.5656 39.2102C90.4336 39.2102 90.2447 39.2911 90.1458 39.3901ZM93.594 39.3901C93.3393 39.6448 93.371 40.3449 93.6497 40.6238C93.9522 40.9262 94.0621 40.9202 94.3654 40.5851C94.9821 39.9039 94.236 38.7481 93.594 39.3901ZM96.057 39.4392C95.9162 39.8058 95.921 39.8098 96.4985 39.8098C96.9278 39.8098 97.0245 39.7577 96.9846 39.5475C96.9176 39.1947 96.1837 39.109 96.057 39.4392ZM101.467 39.3033C101.191 39.5791 101.387 39.8098 101.896 39.8098C102.325 39.8098 102.422 39.7577 102.382 39.5475C102.331 39.2805 101.667 39.1031 101.467 39.3033ZM103.759 39.4355C103.487 39.7626 103.529 40.4304 103.836 40.6544C104.396 41.064 105.029 40.2021 104.666 39.5239C104.47 39.1572 104.026 39.1139 103.759 39.4355ZM87.9794 40.1217C87.657 40.3095 87.6372 40.6883 87.9438 40.8058C88.238 40.9187 88.6165 40.601 88.6165 40.2413C88.6165 39.931 88.3822 39.8871 87.9794 40.1217ZM110.232 40.1247C109.835 40.2769 109.837 40.7526 110.235 40.8292C110.516 40.8833 110.903 40.2929 110.707 40.1093C110.637 40.0443 110.424 40.0512 110.232 40.1247ZM116.756 40.1328C116.441 40.3088 116.426 40.6895 116.729 40.8058C116.989 40.9055 117.402 40.6149 117.402 40.3323C117.402 40.0683 117.06 39.9626 116.756 40.1328ZM79.2713 43.658C79.1111 43.8179 79.156 45.2072 79.3212 45.2072C79.4036 45.2072 79.4711 45.08 79.4711 44.9248C79.4711 44.7688 79.605 44.6075 79.7702 44.5643C80.2053 44.4505 80.3275 44.0069 79.9915 43.7611C79.6882 43.5394 79.4272 43.5021 79.2713 43.658ZM80.6434 43.7454C80.3008 44.0193 80.2224 44.543 80.4707 44.8976C80.7104 45.2397 81.2609 45.3064 81.5401 45.0272C81.8383 44.729 81.7539 44.0485 81.3867 43.7914C80.9845 43.5096 80.9416 43.5069 80.6434 43.7454ZM82.5844 44.1859L82.3684 44.8323L82.2623 44.2701C82.2039 43.961 82.0839 43.7079 81.9955 43.7079C81.9005 43.7079 81.8741 43.8455 81.9309 44.0452C81.9839 44.2308 82.0681 44.5707 82.1183 44.8007C82.2356 45.3377 82.477 45.2535 82.6978 44.5985L82.8716 44.0827L82.9773 44.6449C83.0353 44.9542 83.1473 45.2072 83.226 45.2072C83.3047 45.2072 83.3699 45.1902 83.3708 45.1697C83.3717 45.1491 83.4696 44.8118 83.5885 44.42C83.7074 44.0283 83.7434 43.7079 83.6686 43.7079C83.5939 43.7079 83.4832 43.961 83.4228 44.2701L83.3129 44.8323L83.1537 44.2824C82.9215 43.4808 82.8257 43.4646 82.5844 44.1859ZM84.0689 43.658C84.0138 43.7128 83.9689 44.0839 83.9689 44.4826C83.9689 45.2043 83.9708 45.207 84.4561 45.1868C84.8084 45.1719 84.85 45.1484 84.606 45.1013C84.2015 45.0235 84.1459 44.5117 84.5311 44.4109C84.781 44.3457 84.781 44.3415 84.5311 44.325C84.1579 44.3003 84.2017 43.8578 84.5774 43.8578C84.7471 43.8578 84.8444 43.7904 84.7934 43.7079C84.6888 43.5385 84.2206 43.5063 84.0689 43.658ZM85.2729 43.6533C85.2153 43.7107 85.1774 44.1009 85.1886 44.52C85.1999 44.9391 85.2383 45.1304 85.2741 44.9448C85.3546 44.5266 85.7146 44.503 85.8429 44.9073C85.8952 45.0722 86.005 45.2072 86.0867 45.2072C86.1686 45.2072 86.1871 45.1289 86.1279 45.0332C86.0689 44.9377 86.0306 44.6004 86.0431 44.2836C86.0555 43.967 86.0042 43.7079 85.9291 43.7079C85.854 43.7079 85.6991 43.6721 85.585 43.6283C85.4708 43.5845 85.3305 43.5958 85.2729 43.6533ZM86.4677 43.658C86.4126 43.7128 86.3677 44.0839 86.3677 44.4826C86.3677 45.2043 86.3696 45.207 86.8549 45.1868C87.2072 45.1719 87.2488 45.1484 87.0048 45.1013C86.7963 45.0611 86.6675 44.9277 86.6675 44.7517C86.6675 44.5694 86.7429 44.4959 86.8773 44.5475C86.9925 44.5917 87.1315 44.5559 87.186 44.4677C87.2438 44.374 87.157 44.3076 86.9762 44.3076C86.8017 44.3076 86.6675 44.2099 86.6675 44.0827C86.6675 43.9578 86.8008 43.8578 86.9674 43.8578C87.1323 43.8578 87.2672 43.7904 87.2672 43.7079C87.2672 43.5412 86.6246 43.501 86.4677 43.658ZM87.675 43.6499C87.6156 43.7093 87.5671 44.0839 87.5671 44.4826C87.5671 45.179 87.5837 45.2072 87.9936 45.2072C88.717 45.2072 89.2228 44.2988 88.7281 43.8883C88.465 43.6698 87.8045 43.5203 87.675 43.6499ZM89.7287 43.6727C89.6393 43.7332 89.5677 44.1067 89.5693 44.5024C89.5723 45.2145 89.5771 45.2215 90.0315 45.177C90.463 45.1349 90.4915 45.0935 90.5045 44.4877C90.5147 44.0139 90.4477 43.8054 90.2519 43.7006C89.9365 43.5317 89.9363 43.5317 89.7287 43.6727ZM91.5918 43.9239L91.4074 44.3287L91.1224 43.9808C90.8779 43.6821 90.8533 43.6754 90.9492 43.9328C91.0107 44.0977 91.0918 44.4518 91.1296 44.7199C91.2045 45.2535 91.4651 45.3932 91.4651 44.8998C91.4651 44.7308 91.5713 44.3872 91.7011 44.1362C91.8308 43.8854 91.9008 43.6439 91.8566 43.5997C91.8123 43.5554 91.6931 43.7013 91.5918 43.9239ZM92.7645 43.658C92.7095 43.7128 92.6645 44.0884 92.6645 44.4925C92.6645 45.2054 92.6767 45.2257 93.0768 45.1796C93.4528 45.1364 93.4916 45.0731 93.5185 44.4614C93.5465 43.8226 93.4063 43.5656 93.0269 43.5602C92.9375 43.559 92.8194 43.603 92.7645 43.658ZM94.0518 44.3451C93.7557 45.1164 93.7437 45.5346 94.0326 45.0185C94.2114 44.6989 94.7635 44.6715 94.7635 44.9823C94.7635 45.106 94.8354 45.2072 94.9234 45.2072C95.02 45.2072 95.0426 45.0733 94.9806 44.8698C94.8144 44.3259 94.4842 43.558 94.4164 43.558C94.382 43.558 94.2179 43.9123 94.0518 44.3451ZM96.0925 43.8781C95.805 44.1656 95.7587 44.1733 95.6354 43.953C95.5599 43.8182 95.4263 43.7079 95.3384 43.7079C95.2483 43.7079 95.2858 43.8713 95.4243 44.0827C95.6518 44.4299 95.6518 44.4851 95.4243 44.8323C95.2892 45.0385 95.2437 45.2072 95.323 45.2072C95.4023 45.2072 95.5344 45.0568 95.6164 44.873L95.7656 44.5386L95.9444 44.873C96.0428 45.0568 96.19 45.2072 96.2714 45.2072C96.353 45.2072 96.312 45.043 96.1805 44.8424C95.872 44.3716 96.109 43.8578 96.6345 43.8578C96.9578 43.8578 97.0018 43.9329 97.0521 44.57L97.1083 45.2821L97.1353 44.57C97.1612 43.8847 97.1792 43.8578 97.612 43.8578C98.0452 43.8578 98.0618 43.8829 98.0618 44.5325C98.0618 44.9036 98.1293 45.2072 98.2117 45.2072C98.2942 45.2072 98.3617 44.9036 98.3617 44.5325C98.3617 44.0214 98.4183 43.8578 98.5954 43.8578C98.7239 43.8578 98.7875 43.7904 98.7365 43.7079C98.6855 43.6254 98.1419 43.558 97.5282 43.558C96.5891 43.558 96.362 43.6087 96.0925 43.8781ZM98.9614 44.3826V45.2072L99.4486 45.1868C99.8009 45.1719 99.8425 45.1484 99.5985 45.1013C99.3928 45.0617 99.2612 44.9275 99.2612 44.7574C99.2612 44.5872 99.3928 44.453 99.5985 44.4134L99.9359 44.3484L99.5985 44.328C99.1725 44.3022 99.1455 43.8578 99.5699 43.8578C99.7396 43.8578 99.8369 43.7904 99.7859 43.7079C99.735 43.6254 99.5287 43.558 99.3273 43.558C98.9837 43.558 98.9614 43.6082 98.9614 44.3826ZM100.181 44.42C100.192 44.8943 100.231 45.1304 100.267 44.9448C100.347 44.5266 100.707 44.503 100.835 44.9073C100.888 45.0722 100.992 45.2072 101.067 45.2072C101.148 45.2072 101.148 45.0631 101.066 44.8484C100.991 44.6511 100.969 44.3406 101.017 44.1584C101.109 43.8037 100.872 43.5641 100.423 43.5602C100.201 43.5583 100.164 43.6904 100.181 44.42ZM102.244 43.7619C101.837 43.9634 101.683 44.649 101.967 44.9913C102.066 45.11 102.357 45.201 102.615 45.1937L103.084 45.1802L102.588 45.0371C102.144 44.909 102.097 44.8439 102.138 44.414C102.177 44.0128 102.259 43.9209 102.635 43.8544C102.956 43.7973 103.016 43.7475 102.843 43.6793C102.711 43.6268 102.441 43.664 102.244 43.7619ZM103.493 43.7914C102.887 44.2155 103.126 45.2072 103.834 45.2072C104.283 45.2072 104.509 44.9226 104.509 44.3578C104.509 44.0274 104.414 43.8179 104.219 43.7132C103.854 43.5181 103.888 43.5145 103.493 43.7914ZM104.908 43.658C104.748 43.8179 104.793 45.2072 104.958 45.2072C105.041 45.2072 105.108 45.0722 105.108 44.9073C105.108 44.7424 105.182 44.6075 105.272 44.6075C105.362 44.6075 105.472 44.7424 105.515 44.9073C105.558 45.0722 105.651 45.2072 105.722 45.2072C105.793 45.2072 105.792 45.0523 105.719 44.8619C105.638 44.6491 105.648 44.4099 105.744 44.238C105.865 44.0211 105.839 43.9151 105.625 43.7587C105.325 43.5392 105.064 43.5025 104.908 43.658ZM106.108 43.658C105.948 43.8179 105.993 45.2072 106.158 45.2072C106.24 45.2072 106.308 45.08 106.308 44.9248C106.308 44.7688 106.442 44.6075 106.607 44.5643C107.042 44.4505 107.164 44.0069 106.828 43.7611C106.525 43.5394 106.264 43.5021 106.108 43.658ZM107.541 43.7914C106.968 44.1925 107.209 45.2072 107.877 45.2072C108.639 45.2072 108.954 44.4054 108.407 43.8578C108.046 43.4968 107.969 43.491 107.541 43.7914ZM108.956 43.658C108.796 43.8179 108.841 45.2072 109.006 45.2072C109.089 45.2072 109.156 45.0722 109.156 44.9073C109.156 44.7407 109.256 44.6075 109.381 44.6075C109.505 44.6075 109.606 44.7046 109.606 44.8235C109.606 44.9424 109.665 45.076 109.737 45.1203C109.809 45.1649 109.859 44.8965 109.849 44.5241C109.838 44.1016 109.746 43.7934 109.606 43.7048C109.34 43.5368 109.095 43.5191 108.956 43.658ZM110.458 44.0078C110.093 44.8922 110.025 45.2072 110.196 45.2072C110.284 45.2072 110.356 45.106 110.356 44.9823C110.356 44.8562 110.489 44.7574 110.66 44.7574C110.828 44.7574 111.004 44.8586 111.051 44.9823C111.099 45.106 111.195 45.2072 111.265 45.2072C111.392 45.2072 111.095 44.2286 110.82 43.7415C110.695 43.5194 110.644 43.5569 110.458 44.0078ZM111.18 43.7079C111.129 43.7904 111.193 43.8578 111.321 43.8578C111.498 43.8578 111.555 44.0214 111.555 44.5325C111.555 44.9036 111.623 45.2072 111.705 45.2072C111.787 45.2072 111.855 44.9036 111.855 44.5325C111.855 44.0214 111.912 43.8578 112.089 43.8578C112.217 43.8578 112.281 43.7904 112.23 43.7079C112.179 43.6254 111.943 43.558 111.705 43.558C111.467 43.558 111.231 43.6254 111.18 43.7079ZM113.204 43.8578C112.471 44.5916 113.195 45.5434 114.114 45.052C114.524 44.8326 114.498 44.091 114.07 43.7914C113.642 43.491 113.565 43.4968 113.204 43.8578ZM114.725 44.42C114.743 45.176 114.757 45.213 114.837 44.7209L114.928 44.1599L115.285 44.6835C115.481 44.9715 115.701 45.2072 115.772 45.2072C115.844 45.2072 115.903 44.8698 115.903 44.4575C115.903 44.0452 115.835 43.7079 115.753 43.7079C115.671 43.7079 115.603 43.9259 115.603 44.1925V44.677L115.223 44.1175C115.014 43.8097 114.811 43.558 114.773 43.558C114.735 43.558 114.713 43.9458 114.725 44.42ZM112.455 44.4575C112.455 44.8698 112.522 45.2072 112.605 45.2072C112.687 45.2072 112.754 44.8698 112.754 44.4575C112.754 44.0452 112.687 43.7079 112.605 43.7079C112.522 43.7079 112.455 44.0452 112.455 44.4575ZM79.4711 44.1701C79.4711 44.5355 79.8215 44.4839 79.8943 44.1077C79.9231 43.9598 79.8467 43.8578 79.7069 43.8578C79.568 43.8578 79.4711 43.986 79.4711 44.1701ZM80.5816 44.2346C80.4791 44.6434 80.7239 45.0572 81.0686 45.0572C81.3549 45.0572 81.5687 44.4476 81.3972 44.1202C81.1883 43.7218 80.693 43.7913 80.5816 44.2346ZM85.3182 44.0827C85.3182 44.2371 85.4164 44.3106 85.5806 44.2791C85.8966 44.2182 85.8767 43.9521 85.551 43.8844C85.4152 43.856 85.3182 43.9386 85.3182 44.0827ZM87.8669 44.447C87.8669 44.8653 87.9318 45.0572 88.0735 45.0572C88.6777 45.0572 88.7991 43.9694 88.2042 43.8848C87.9018 43.8419 87.8669 43.9001 87.8669 44.447ZM89.8159 44.0827C89.8159 44.2064 89.9171 44.3076 90.0408 44.3076C90.1645 44.3076 90.2657 44.2064 90.2657 44.0827C90.2657 43.959 90.1645 43.8578 90.0408 43.8578C89.9171 43.8578 89.8159 43.959 89.8159 44.0827ZM92.8144 44.0827C92.8144 44.2371 92.9126 44.3106 93.0768 44.2791C93.3928 44.2182 93.3729 43.9521 93.0473 43.8844C92.9114 43.856 92.8144 43.9386 92.8144 44.0827ZM100.311 44.0827C100.311 44.2371 100.409 44.3106 100.573 44.2791C100.889 44.2182 100.869 43.9521 100.544 43.8844C100.408 43.856 100.311 43.9386 100.311 44.0827ZM103.459 44.1577C103.345 44.3707 103.345 44.5443 103.459 44.7574C103.782 45.3598 104.382 44.9467 104.243 44.2184C104.157 43.7724 103.685 43.7358 103.459 44.1577ZM105.108 44.0827C105.108 44.2064 105.209 44.3076 105.333 44.3076C105.457 44.3076 105.558 44.2064 105.558 44.0827C105.558 43.959 105.457 43.8578 105.333 43.8578C105.209 43.8578 105.108 43.959 105.108 44.0827ZM106.308 44.1701C106.308 44.5355 106.658 44.4839 106.731 44.1077C106.76 43.9598 106.683 43.8578 106.544 43.8578C106.405 43.8578 106.308 43.986 106.308 44.1701ZM107.561 44.083C107.433 44.4181 107.633 45.0572 107.866 45.0572C108.204 45.0572 108.447 44.6397 108.346 44.2346C108.239 43.8115 107.705 43.7082 107.561 44.083ZM109.156 44.0827C109.156 44.2064 109.257 44.3076 109.381 44.3076C109.505 44.3076 109.606 44.2064 109.606 44.0827C109.606 43.959 109.505 43.8578 109.381 43.8578C109.257 43.8578 109.156 43.959 109.156 44.0827ZM113.311 43.9514C112.947 44.3155 113.421 45.1788 113.887 45.0001C114.253 44.8595 114.118 43.9455 113.723 43.889C113.554 43.8649 113.369 43.8931 113.311 43.9514ZM110.61 44.2166C110.549 44.3727 110.534 44.5358 110.577 44.579C110.714 44.7157 110.834 44.4916 110.777 44.2069C110.724 43.946 110.716 43.9464 110.61 44.2166ZM94.3137 44.3737C94.3137 44.5022 94.3811 44.6075 94.4636 44.6075C94.5461 44.6075 94.6135 44.544 94.6135 44.4664C94.6135 44.3887 94.5461 44.2836 94.4636 44.2326C94.3811 44.1817 94.3137 44.2452 94.3137 44.3737ZM89.8159 44.7574C89.8159 45.0455 90.1092 45.1638 90.3144 44.9586C90.4279 44.8451 90.1441 44.4575 89.9476 44.4575C89.8752 44.4575 89.8159 44.5925 89.8159 44.7574ZM92.8144 44.7574C92.8144 44.9223 92.9116 45.0572 93.0305 45.0572C93.3435 45.0572 93.4879 44.7461 93.2459 44.5931C92.9251 44.3898 92.8144 44.4319 92.8144 44.7574Z" fill="#182F4F"/>
</g>
<defs>
<clipPath id="clip0_193_10">
<rect width="150" height="55.9029" fill="white" transform="translate(0.947876 0.548584)"/>
</clipPath>
</defs>
</svg>
